<?xml version="1.0" encoding="UTF-8" standalone="no"?>
<!DOCTYPE svg PUBLIC "-//W3C//DTD SVG 1.1//EN" "http://www.w3.org/Graphics/SVG/1.1/DTD/svg11.dtd">
<svg width="100%" height="100%" viewBox="0 0 1024 1024" version="1.1" xmlns="http://www.w3.org/2000/svg" xmlns:xlink="http://www.w3.org/1999/xlink" xml:space="preserve" xmlns:serif="http://www.serif.com/" style="fill-rule:evenodd;clip-rule:evenodd;stroke-linejoin:round;stroke-miterlimit:2;">
    <g>
        <rect x="0" y="0" width="1024" height="1024" style="fill:none;"/>
        <g transform="matrix(1.28,0,0,1.28,-128,-230.4)">
            <rect x="100" y="180" width="800" height="800" style="fill:url(#_Linear1);"/>
        </g>
        <g transform="matrix(0.821765,0,0,0.821765,91.256572,91.256572)">
            <path d="M766.775,105.176C902.046,190.129 992.031,340.639 992.031,512C992.031,706.357 876.274,873.892 710,949.361C684.748,838.221 632.417,791.074 538.602,758.96C536.859,790.593 545.561,854.983 522.327,856.611C477.951,859.719 321.557,782.368 310.75,710.135C300.443,641.237 302.536,535.834 294.475,482.283C86.974,483.114 245.65,303.256 245.65,303.256L261.925,368.357L294.475,368.357C294.475,368.357 298.094,296.03 310.75,286.981C326.511,275.713 366.457,254.592 473.502,254.431C519.506,190.629 692.164,133.645 766.775,105.176ZM603.703,352.082C598.577,358.301 614.243,384.787 623.39,401.682C639.967,432.299 672.34,459.32 760.231,456.739C780.796,456.135 808.649,456.743 831.555,448.316C919.689,369.191 665.548,260.941 652.528,270.706C629.157,288.235 677.433,340.481 685.079,352.082C663.595,350.818 630.521,352.121 603.703,352.082ZM515.817,516.822C491.026,516.822 470.898,536.949 470.898,561.741C470.898,586.532 491.026,606.66 515.817,606.66C540.609,606.66 560.736,586.532 560.736,561.741C560.736,536.949 540.609,516.822 515.817,516.822ZM656.608,969.83C610.979,984.25 562.391,992.031 512,992.031C247.063,992.031 31.969,776.937 31.969,512C31.969,247.063 247.063,31.969 512,31.969C581.652,31.969 647.859,46.835 707.634,73.574C674.574,86.913 627.224,104.986 620,103.081C343.573,30.201 98.64,283.528 98.64,511.993C98.64,761.842 376.244,989.043 627.831,910C637.21,907.053 645.743,936.753 656.608,969.83Z" style="fill:white;"/>
        </g>
    </g>
    <defs>
        <linearGradient id="_Linear1" x1="0" y1="0" x2="1" y2="0" gradientUnits="userSpaceOnUse" gradientTransform="matrix(649.940504,712.032948,-712.032948,649.940504,179.254643,220.593984)"><stop offset="0" style="stop-color:rgb(76,196,140);stop-opacity:1"/><stop offset="0.5" style="stop-color:rgb(71,108,201);stop-opacity:1"/><stop offset="1" style="stop-color:rgb(186,26,183);stop-opacity:1"/></linearGradient>
    </defs>
</svg>
